<?xml version="1.0" encoding="UTF-8" standalone="no"?>
<svg
   xmlns:dc="http://purl.org/dc/elements/1.1/"
   xmlns:cc="http://creativecommons.org/ns#"
   xmlns:rdf="http://www.w3.org/1999/02/22-rdf-syntax-ns#"
   xmlns:svg="http://www.w3.org/2000/svg"
   xmlns="http://www.w3.org/2000/svg"
   xmlns:sodipodi="http://sodipodi.sourceforge.net/DTD/sodipodi-0.dtd"
   xmlns:inkscape="http://www.inkscape.org/namespaces/inkscape"
   width="414"
   height="375"
   viewBox="0 0 414 375"
   version="1.1"
   id="svg845"
   sodipodi:docname="day.svg"
   inkscape:version="0.92.4 (5da689c313, 2019-01-14)">
  <metadata
     id="metadata849">
    <rdf:RDF>
      <cc:Work
         rdf:about="">
        <dc:format>image/svg+xml</dc:format>
        <dc:type
           rdf:resource="http://purl.org/dc/dcmitype/StillImage" />
        <dc:title></dc:title>
      </cc:Work>
    </rdf:RDF>
  </metadata>
  <sodipodi:namedview
     pagecolor="#ffffff"
     bordercolor="#666666"
     borderopacity="1"
     objecttolerance="10"
     gridtolerance="10"
     guidetolerance="10"
     inkscape:pageopacity="0"
     inkscape:pageshadow="2"
     inkscape:window-width="1920"
     inkscape:window-height="1001"
     id="namedview847"
     showgrid="false"
     inkscape:zoom="1.946988"
     inkscape:cx="207"
     inkscape:cy="351.31188"
     inkscape:window-x="-9"
     inkscape:window-y="-9"
     inkscape:window-maximized="1"
     inkscape:current-layer="svg845" />
  <defs
     id="defs836">
    <clipPath
       id="clip-day">
      <rect
         width="414"
         height="415"
         id="rect833"
         x="0"
         y="0" />
    </clipPath>
  </defs>
  <g
     id="day"
     clip-path="url(#clip-day)"
     transform="translate(0,0.06188121)">
    <rect
       width="414"
       height="415"
       id="rect838"
       x="0"
       y="0"
       style="fill:#e6ecf6" />
    <path
       id="cloud"
       d="m 178.116,53.739 a 41.653,41.653 0 0 0 -8.258,0.826 34.058,34.058 0 0 0 -47.7,-24.214 45.459,45.459 0 0 0 -85.458,31.026 37.9,37.9 0 0 0 1.139,75.772 h 140.28 a 41.705,41.705 0 1 0 0,-83.41 z m 0,0"
       transform="translate(15.001,32.608)"
       inkscape:connector-curvature="0"
       style="fill:#ffffff" />
    <path
       id="cloud-2"
       data-name="cloud"
       d="m 156.075,47.137 a 36.5,36.5 0 0 0 -7.236,0.723 29.843,29.843 0 0 0 -41.8,-21.218 39.834,39.834 0 0 0 -74.883,27.188 33.206,33.206 0 0 0 1,66.4 h 122.919 a 36.544,36.544 0 1 0 0,-73.088 z m 0,0"
       transform="translate(104.001,32.531)"
       inkscape:connector-curvature="0"
       style="opacity:0.51999996;fill:#ffffff" />
    <path
       id="cloud-3"
       data-name="cloud"
       d="m 26.254,33.975 a 26.222,26.222 0 0 1 5.2,0.52 21.441,21.441 0 0 1 30.027,-15.244 28.618,28.618 0 0 1 53.8,19.532 23.856,23.856 0 0 1 -0.717,47.7 h -88.31 a 26.255,26.255 0 1 1 0,-52.509 z m 0,0"
       transform="translate(318.26,159.608)"
       inkscape:connector-curvature="0"
       style="fill:#ffffff" />
    <path
       id="cloud-4"
       data-name="cloud"
       d="m 33.76,43.577 a 33.719,33.719 0 0 1 6.685,0.668 27.571,27.571 0 0 1 38.613,-19.6 36.800308,36.800308 0 1 1 69.183,25.115 30.677,30.677 0 0 1 -0.922,61.339 H 33.76 a 33.761,33.761 0 1 1 0,-67.522 z m 0,0"
       transform="translate(-52.999,211.608)"
       inkscape:connector-curvature="0"
       style="fill:#ffffff" />
  </g>
</svg>
