<?xml version="1.0" encoding="UTF-8" standalone="no"?>
<svg
   xmlns:dc="http://purl.org/dc/elements/1.1/"
   xmlns:cc="http://creativecommons.org/ns#"
   xmlns:rdf="http://www.w3.org/1999/02/22-rdf-syntax-ns#"
   xmlns:svg="http://www.w3.org/2000/svg"
   xmlns="http://www.w3.org/2000/svg"
   xmlns:sodipodi="http://sodipodi.sourceforge.net/DTD/sodipodi-0.dtd"
   xmlns:inkscape="http://www.inkscape.org/namespaces/inkscape"
   width="414"
   height="375"
   viewBox="0 0 414 375"
   version="1.1"
   id="svg4634"
   sodipodi:docname="night.svg"
   inkscape:version="0.92.4 (5da689c313, 2019-01-14)">
  <metadata
     id="metadata4638">
    <rdf:RDF>
      <cc:Work
         rdf:about="">
        <dc:format>image/svg+xml</dc:format>
        <dc:type
           rdf:resource="http://purl.org/dc/dcmitype/StillImage" />
        <dc:title></dc:title>
      </cc:Work>
    </rdf:RDF>
  </metadata>
  <sodipodi:namedview
     pagecolor="#ffffff"
     bordercolor="#666666"
     borderopacity="1"
     objecttolerance="10"
     gridtolerance="10"
     guidetolerance="10"
     inkscape:pageopacity="0"
     inkscape:pageshadow="2"
     inkscape:window-width="1920"
     inkscape:window-height="1001"
     id="namedview4636"
     showgrid="false"
     inkscape:zoom="2.2746988"
     inkscape:cx="184.31589"
     inkscape:cy="210.35216"
     inkscape:window-x="-9"
     inkscape:window-y="-9"
     inkscape:window-maximized="1"
     inkscape:current-layer="svg4634" />
  <defs
     id="defs4600">
    <clipPath
       id="clip-night">
      <rect
         width="414"
         height="415"
         id="rect4597"
         x="0"
         y="0" />
    </clipPath>
  </defs>
  <g
     id="night"
     clip-path="url(#clip-night)"
     transform="translate(0,0.44491525)">
    <rect
       width="414"
       height="415"
       id="rect4602"
       x="0"
       y="0"
       style="fill:#243046" />
    <path
       id="cloud"
       d="m 178.116,53.739 a 41.653,41.653 0 0 0 -8.258,0.826 34.058,34.058 0 0 0 -47.7,-24.214 45.459,45.459 0 0 0 -85.458,31.026 37.9,37.9 0 0 0 1.139,75.772 h 140.28 a 41.705,41.705 0 1 0 0,-83.41 z m 0,0"
       transform="translate(20.001,190.608)"
       inkscape:connector-curvature="0"
       style="opacity:0.06000001;fill:#ffffff" />
    <path
       id="cloud-2"
       data-name="cloud"
       d="m 28.765,37.187 a 28.73,28.73 0 0 1 5.7,0.569 23.491,23.491 0 0 1 32.9,-16.7 31.355187,31.355187 0 1 1 58.946,21.4 26.138,26.138 0 0 1 -0.785,52.263 H 28.765 a 28.766,28.766 0 1 1 0,-57.531 z m 0,0"
       transform="translate(207.001,83.608)"
       inkscape:connector-curvature="0"
       style="opacity:0.03999999;fill:#ffffff" />
    <g
       id="moon"
       transform="translate(277,20.965)">
      <path
         id="Path_1"
         data-name="Path 1"
         d="M 31.37,80.21 A 48.813,48.813 0 0 0 68.77,0.01 54.671,54.671 0 1 1 0,68.776 48.612,48.612 0 0 0 31.37,80.21 Z"
         inkscape:connector-curvature="0"
         style="fill:#ffeb98" />
      <path
         id="Path_2"
         data-name="Path 2"
         d="m 119.487,42.776 a 54.619,54.619 0 0 1 -76.7,76.7 54.628,54.628 0 1 0 76.7,-76.7 z"
         transform="translate(-33.646,-33.634)"
         inkscape:connector-curvature="0"
         style="fill:#efcf6e" />
    </g>
    <path
       id="cloud-3"
       data-name="cloud"
       d="m 34.141,44.064 a 34.1,34.1 0 0 1 6.761,0.676 27.881,27.881 0 0 1 39.049,-19.823 37.215056,37.215056 0 0 1 69.962,25.4 31.023,31.023 0 0 1 -0.932,62.03 H 34.141 a 34.142,34.142 0 1 1 0,-68.283 z m 0,0"
       transform="translate(287.26,78.608)"
       inkscape:connector-curvature="0"
       style="fill:#333e53" />
    <path
       id="cloud-4"
       data-name="cloud"
       d="m 124.215,37.595 a 29.048,29.048 0 0 0 -5.759,0.576 23.751,23.751 0 0 0 -33.265,-16.887 31.703166,31.703166 0 0 0 -59.6,21.638 26.428,26.428 0 0 0 0.794,52.842 h 97.829 a 29.0845,29.0845 0 1 0 0,-58.169 z m 0,0"
       transform="translate(-51.999,20.608)"
       inkscape:connector-curvature="0"
       style="opacity:0.06000001;fill:#ffffff" />
    <g
       id="Group_1"
       data-name="Group 1"
       transform="translate(-55,31.992)"
       style="opacity:0.92000002">
      <path
         id="Path_4"
         data-name="Path 4"
         d="m 234.109,82.84 0.459,0.93 1.027,0.149 -0.743,0.724 0.176,1.022 -0.918,-0.482 -0.918,0.482 0.176,-1.022 -0.743,-0.724 1.027,-0.149 z"
         inkscape:connector-curvature="0"
         style="fill:#fff6d2" />
    </g>
    <g
       id="Group_2"
       data-name="Group 2"
       transform="translate(16,-0.008)"
       style="opacity:0.51000001">
      <path
         id="Path_4-2"
         data-name="Path 4"
         d="m 234.109,82.84 0.459,0.93 1.027,0.149 -0.743,0.724 0.176,1.022 -0.918,-0.482 -0.918,0.482 0.176,-1.022 -0.743,-0.724 1.027,-0.149 z"
         inkscape:connector-curvature="0"
         style="fill:#fff6d2" />
    </g>
    <g
       id="Group_4"
       data-name="Group 4"
       transform="translate(-190,52.992)"
       style="opacity:0.26000001">
      <path
         id="Path_4-3"
         data-name="Path 4"
         d="m 234.109,82.84 0.459,0.93 1.027,0.149 -0.743,0.724 0.176,1.022 -0.918,-0.482 -0.918,0.482 0.176,-1.022 -0.743,-0.724 1.027,-0.149 z"
         inkscape:connector-curvature="0"
         style="fill:#fff6d2" />
    </g>
    <g
       id="Group_6"
       data-name="Group 6"
       transform="translate(-190,-67.008)"
       style="opacity:0.92000002">
      <path
         id="Path_4-4"
         data-name="Path 4"
         d="m 234.109,82.84 0.459,0.93 1.027,0.149 -0.743,0.724 0.176,1.022 -0.918,-0.482 -0.918,0.482 0.176,-1.022 -0.743,-0.724 1.027,-0.149 z"
         inkscape:connector-curvature="0"
         style="fill:#fff6d2" />
    </g>
    <g
       id="Group_7"
       data-name="Group 7"
       transform="translate(-3,-58.008)"
       style="opacity:0.92000002">
      <path
         id="Path_4-5"
         data-name="Path 4"
         d="m 234.109,82.84 0.459,0.93 1.027,0.149 -0.743,0.724 0.176,1.022 -0.918,-0.482 -0.918,0.482 0.176,-1.022 -0.743,-0.724 1.027,-0.149 z"
         inkscape:connector-curvature="0"
         style="opacity:0.45;fill:#fff6d2" />
    </g>
    <g
       id="Group_9"
       data-name="Group 9"
       transform="translate(-70,102.992)"
       style="opacity:0.47999998">
      <path
         id="Path_4-6"
         data-name="Path 4"
         d="m 234.109,82.84 0.459,0.93 1.027,0.149 -0.743,0.724 0.176,1.022 -0.918,-0.482 -0.918,0.482 0.176,-1.022 -0.743,-0.724 1.027,-0.149 z"
         inkscape:connector-curvature="0"
         style="fill:#fff6d2" />
    </g>
    <g
       id="Group_10"
       data-name="Group 10"
       transform="translate(30,162.992)"
       style="opacity:0.92000002">
      <path
         id="Path_4-7"
         data-name="Path 4"
         d="m 234.109,82.84 0.459,0.93 1.027,0.149 -0.743,0.724 0.176,1.022 -0.918,-0.482 -0.918,0.482 0.176,-1.022 -0.743,-0.724 1.027,-0.149 z"
         inkscape:connector-curvature="0"
         style="fill:#fff6d2" />
    </g>
    <g
       id="Group_11"
       data-name="Group 11"
       transform="translate(70,112.992)"
       style="opacity:0.46000001">
      <path
         id="Path_4-8"
         data-name="Path 4"
         d="m 234.109,82.84 0.459,0.93 1.027,0.149 -0.743,0.724 0.176,1.022 -0.918,-0.482 -0.918,0.482 0.176,-1.022 -0.743,-0.724 1.027,-0.149 z"
         inkscape:connector-curvature="0"
         style="fill:#fff6d2" />
    </g>
    <g
       id="Group_13"
       data-name="Group 13"
       transform="translate(150,232.992)"
       style="opacity:0.92000002">
      <path
         id="Path_4-9"
         data-name="Path 4"
         d="m 234.109,82.84 0.459,0.93 1.027,0.149 -0.743,0.724 0.176,1.022 -0.918,-0.482 -0.918,0.482 0.176,-1.022 -0.743,-0.724 1.027,-0.149 z"
         inkscape:connector-curvature="0"
         style="fill:#fff6d2" />
    </g>
    <g
       id="Group_14"
       data-name="Group 14"
       transform="translate(30,292.992)"
       style="opacity:0.92000002">
      <path
         id="Path_4-10"
         data-name="Path 4"
         d="m 234.109,82.84 0.459,0.93 1.027,0.149 -0.743,0.724 0.176,1.022 -0.918,-0.482 -0.918,0.482 0.176,-1.022 -0.743,-0.724 1.027,-0.149 z"
         inkscape:connector-curvature="0"
         style="fill:#fff6d2" />
    </g>
    <g
       id="Group_15"
       data-name="Group 15"
       transform="translate(-150,272.992)"
       style="opacity:0.92000002">
      <path
         id="Path_4-11"
         data-name="Path 4"
         d="m 234.109,82.84 0.459,0.93 1.027,0.149 -0.743,0.724 0.176,1.022 -0.918,-0.482 -0.918,0.482 0.176,-1.022 -0.743,-0.724 1.027,-0.149 z"
         inkscape:connector-curvature="0"
         style="fill:#fff6d2" />
    </g>
  </g>
</svg>
